<?xml version="1.0" standalone="no"?>
<!DOCTYPE svg PUBLIC "-//W3C//DTD SVG 20010904//EN"
 "http://www.w3.org/TR/2001/REC-SVG-20010904/DTD/svg10.dtd">
<svg version="1.0" xmlns="http://www.w3.org/2000/svg"
 width="1000.000000pt" height="658.000000pt" viewBox="0 0 1000.000000 658.000000"
 preserveAspectRatio="xMidYMid meet">

<g transform="translate(0.000000,658.000000) scale(0.100000,-0.100000)"
fill="#23408e" stroke="none">
<path d="M5300 4906 c0 -2 -22 -237 -50 -522 -27 -285 -49 -518 -47 -520 1 -1
41 -5 90 -9 87 -7 87 -7 87 17 0 33 39 410 42 413 2 1 57 -4 123 -10 66 -7
122 -10 125 -8 5 5 20 156 16 161 -2 1 -58 8 -125 14 l-121 12 0 26 c0 31 21
244 24 247 1 2 65 -4 142 -11 76 -8 140 -13 141 -12 3 3 21 160 19 163 -3 3
-407 43 -438 43 -16 0 -28 -2 -28 -4z"/>
<path d="M4347 4870 c-76 -9 -139 -19 -141 -21 -1 -2 21 -193 49 -424 29 -231
58 -465 65 -520 l12 -101 86 11 c84 10 87 11 86 35 -1 14 -12 110 -24 214 -19
159 -21 189 -9 197 37 23 46 10 141 -198 86 -189 97 -208 119 -207 75 4 159
17 159 24 0 4 -47 106 -104 226 l-104 218 34 45 c19 24 39 62 45 85 14 50 4
184 -17 257 -21 71 -93 142 -165 163 -61 19 -53 19 -232 -4z m213 -178 c24
-24 29 -39 35 -105 4 -42 4 -88 1 -102 -8 -32 -48 -52 -111 -56 l-50 -4 -11
95 c-7 52 -15 116 -18 142 l-7 47 33 4 c83 10 99 7 128 -21z"/>
<path d="M5925 4827 c-12 -37 -233 -1012 -231 -1015 5 -4 427 -102 442 -102 7
0 19 33 29 73 9 39 18 77 20 84 3 8 -44 23 -136 44 -109 26 -139 36 -139 49 0
12 136 612 185 816 4 20 -2 24 -68 39 -39 9 -78 18 -85 21 -7 2 -15 -2 -17 -9z"/>
<path d="M3795 4756 c-121 -33 -221 -61 -223 -62 -3 -2 268 -1007 274 -1013 3
-3 406 103 439 115 10 4 9 22 -7 82 -12 42 -24 80 -27 84 -4 4 -67 -8 -140
-28 -73 -19 -135 -33 -138 -31 -5 6 -73 250 -70 253 1 1 57 16 124 34 l121 32
-14 47 c-8 25 -17 59 -21 74 -3 16 -12 31 -19 34 -7 2 -61 -9 -121 -26 -59
-16 -111 -27 -115 -23 -14 15 -70 244 -62 251 5 4 65 23 134 41 69 18 127 34
129 36 5 4 -28 137 -37 150 -4 6 -88 -12 -227 -50z"/>
<path d="M6572 4584 c-93 -46 -98 -57 -278 -526 -50 -131 -64 -179 -64 -220 1
-93 58 -185 145 -231 31 -17 58 -22 115 -22 85 0 133 20 186 77 43 44 55 71
173 374 87 227 101 270 101 320 -1 148 -109 254 -261 254 -50 0 -77 -6 -117
-26z m171 -164 c48 -38 45 -51 -69 -343 -58 -149 -115 -282 -127 -294 -45 -49
-137 -14 -137 52 0 29 164 470 206 551 27 54 83 69 127 34z"/>
<path d="M3062 4498 c-40 -17 -71 -36 -69 -42 60 -153 404 -956 410 -956 6 0
416 168 424 175 4 2 -58 148 -66 157 -3 4 -64 -18 -135 -48 -71 -30 -133 -51
-137 -47 -3 5 -80 185 -170 400 -90 216 -168 393 -174 392 -5 0 -43 -14 -83
-31z"/>
<path d="M7247 4309 c-53 -13 -87 -32 -124 -71 -34 -36 -319 -520 -339 -577
-43 -120 25 -268 148 -321 102 -44 238 -11 302 73 43 57 308 519 324 565 17
52 12 144 -12 189 -56 109 -184 170 -299 142z m117 -190 c51 -40 41 -68 -119
-344 -80 -137 -153 -256 -162 -262 -48 -36 -133 5 -133 64 0 39 289 534 321
550 35 18 63 16 93 -8z"/>
<path d="M2585 4256 c-119 -55 -181 -211 -131 -329 35 -84 328 -557 360 -582
163 -125 402 -24 423 179 3 28 0 69 -6 91 -14 54 -303 539 -349 589 -52 54
-103 76 -182 76 -47 0 -79 -7 -115 -24z m164 -173 c47 -45 311 -499 311 -535
0 -66 -85 -104 -133 -60 -11 9 -85 127 -165 262 -161 270 -169 293 -118 336
36 31 69 30 105 -3z"/>
<path d="M7522 3609 c-178 -221 -325 -406 -327 -412 -2 -7 26 -36 62 -65 53
-42 69 -50 78 -40 7 7 69 84 140 171 126 157 127 158 149 140 11 -10 22 -18
24 -19 1 0 -25 -70 -59 -155 -33 -85 -71 -182 -84 -215 l-23 -62 66 -53 c37
-30 71 -54 75 -54 5 0 48 104 95 230 l87 230 56 6 c77 8 131 42 193 119 83
102 99 140 94 224 -5 105 -24 134 -169 253 -68 57 -126 103 -129 103 -3 0
-150 -181 -328 -401z m448 85 c28 -33 17 -78 -38 -147 -54 -68 -67 -77 -109
-77 -27 0 -112 57 -113 75 0 6 39 58 86 118 l86 107 37 -30 c21 -16 44 -37 51
-46z"/>
<path d="M2130 3911 c-19 -4 -47 -14 -63 -22 -32 -17 -236 -181 -237 -191 0
-7 67 -90 424 -525 l239 -292 68 56 c42 33 66 60 62 67 -4 6 -61 76 -126 155
l-119 145 50 46 c67 62 95 119 96 195 0 79 -23 128 -112 236 -55 67 -82 91
-119 106 -58 25 -116 34 -163 24z m93 -173 c34 -27 137 -163 137 -183 0 -32
-65 -110 -91 -110 -8 0 -202 236 -197 240 58 58 117 78 151 53z"/>
<path d="M4724 3594 c3 -26 6 -78 6 -115 0 -62 2 -69 20 -69 17 0 18 5 13 51
-8 65 13 65 35 0 13 -39 35 -61 48 -49 3 3 -4 27 -15 54 -17 44 -17 52 -4 69
17 24 10 75 -14 93 -9 6 -35 12 -56 12 l-40 0 7 -46z m76 -10 c12 -31 6 -44
-21 -44 -15 0 -19 7 -19 35 0 43 25 48 40 9z"/>
<path d="M4870 3530 l0 -110 50 0 c38 0 50 4 50 15 0 10 -11 15 -35 15 -33 0
-35 2 -35 35 0 32 2 35 31 35 38 0 35 24 -4 28 -22 3 -27 8 -27 33 0 26 3 29
30 29 20 0 30 5 30 15 0 11 -12 15 -45 15 l-45 0 0 -110z"/>
<path d="M4990 3530 c0 -90 3 -110 15 -110 10 0 15 16 17 63 l3 62 23 -67 c32
-93 47 -88 55 15 10 123 9 147 -7 147 -18 0 -26 -22 -27 -78 l-1 -47 -21 63
c-15 45 -26 62 -39 62 -16 0 -18 -11 -18 -110z"/>
<path d="M5164 3626 c-15 -11 -20 -31 -24 -92 -6 -92 4 -118 46 -122 45 -4 57
17 62 112 4 68 1 85 -13 99 -20 21 -45 22 -71 3z m53 -99 c-3 -39 -10 -74 -16
-80 -18 -18 -31 5 -31 58 0 69 14 107 36 98 14 -5 16 -17 11 -76z"/>
<path d="M4584 3619 c-3 -6 -3 -39 0 -72 13 -128 18 -147 33 -147 16 0 16 8
-3 178 -6 50 -16 64 -30 41z"/>
<path d="M5280 3538 c0 -51 3 -103 6 -115 11 -40 30 -25 49 38 11 34 20 58 21
53 1 -5 5 -35 9 -66 8 -71 29 -78 45 -15 6 23 20 72 30 110 18 65 18 67 0 67
-15 0 -22 -13 -33 -62 l-14 -63 -8 68 c-9 81 -26 87 -45 16 -19 -71 -30 -71
-30 0 0 48 -3 61 -15 61 -12 0 -15 -17 -15 -92z"/>
<path d="M4407 3603 c-24 -4 -28 -8 -24 -26 3 -12 11 -64 18 -115 l12 -92 36
6 c54 9 61 12 61 29 0 13 -7 15 -34 10 -32 -6 -34 -5 -38 24 -5 37 -2 41 30
41 33 0 23 24 -14 30 -24 4 -29 10 -29 35 0 25 4 30 28 33 15 2 27 9 27 18 0
14 -15 15 -73 7z"/>
<path d="M5501 3578 c-5 -13 -23 -58 -40 -101 -17 -43 -31 -82 -31 -87 0 -18
29 -10 35 10 4 13 15 20 31 20 19 0 24 -5 24 -25 0 -16 6 -25 15 -25 17 0 18
21 8 148 -4 60 -10 82 -20 82 -7 0 -17 -10 -22 -22z m19 -104 c0 -15 -6 -24
-15 -24 -17 0 -18 4 -9 37 8 29 24 20 24 -13z"/>
<path d="M4310 3576 c0 -12 19 -118 36 -193 2 -13 11 -23 19 -23 18 0 18 2 1
87 -8 37 -17 85 -20 106 -4 23 -12 37 -21 37 -8 0 -15 -6 -15 -14z"/>
<path d="M5618 3563 c-30 -37 -49 -178 -26 -201 27 -27 88 -3 88 34 0 19 -20
18 -36 -3 -10 -14 -15 -15 -25 -6 -9 9 -9 26 1 77 14 77 34 102 50 62 10 -27
29 -35 31 -13 6 57 -49 89 -83 50z"/>
<path d="M4246 3513 c7 -31 12 -59 10 -60 -2 -2 -18 21 -37 52 -56 92 -68 71
-39 -69 11 -54 20 -100 20 -102 0 -2 7 -4 16 -4 17 0 16 27 -3 110 -3 16 9 3
32 -32 20 -32 43 -58 51 -58 18 0 18 1 -7 120 -17 80 -25 100 -39 100 -16 0
-16 -5 -4 -57z"/>
<path d="M5775 3472 c-22 -99 -31 -115 -56 -107 -27 9 -43 -3 -28 -21 15 -19
63 -18 79 1 11 13 49 151 50 181 0 7 -6 14 -13 17 -10 4 -19 -16 -32 -71z"/>
<path d="M4056 3413 c3 -73 2 -113 -4 -105 -6 9 -18 11 -36 6 l-26 -6 6 102
c7 98 6 102 -12 97 -10 -3 -31 -9 -46 -13 -38 -9 -38 -39 0 -31 l28 6 -4 -100
c-5 -111 -8 -107 74 -83 45 13 54 19 54 39 0 20 17 35 40 35 4 0 10 -9 13 -20
6 -22 37 -28 37 -7 -1 26 -96 192 -113 195 -16 3 -17 -6 -11 -115z m48 8 c14
-26 14 -30 1 -35 -10 -3 -15 1 -15 13 0 11 -3 26 -6 35 -10 27 5 18 20 -13z"/>
<path d="M5841 3424 c-28 -53 -51 -101 -51 -105 0 -17 28 -9 41 12 18 26 49
16 49 -16 0 -13 6 -25 14 -28 10 -4 15 15 20 85 13 185 1 193 -73 52z m44 -24
c-5 -23 -10 -29 -18 -21 -7 7 -7 18 2 37 6 15 14 24 17 21 3 -3 3 -20 -1 -37z"/>
<path d="M6027 3366 c-22 -64 -32 -108 -26 -112 14 -8 22 1 35 39 9 26 16 32
40 32 41 1 52 10 65 56 11 36 10 42 -7 59 -10 10 -31 22 -45 25 -26 6 -28 4
-62 -99z m87 55 c11 -18 -13 -61 -34 -61 -23 0 -23 -2 -9 39 11 30 32 41 43
22z"/>
<path d="M3800 3439 c-9 -16 -6 -35 11 -87 28 -87 44 -112 73 -112 28 0 59 32
54 57 -5 25 -33 23 -33 -2 0 -28 -27 -25 -42 5 -19 40 -38 119 -30 126 4 4 18
1 32 -6 30 -16 40 -9 25 19 -15 29 -75 29 -90 0z"/>
<path d="M3702 3415 c-37 -16 -34 -40 3 -31 20 5 23 1 29 -41 3 -25 6 -70 6
-99 0 -60 4 -62 62 -36 26 12 35 21 29 30 -6 9 -14 10 -34 3 l-26 -10 -3 97
c-3 108 -7 113 -66 87z"/>
<path d="M6178 3403 c-8 -10 -26 -48 -39 -85 -19 -55 -21 -70 -11 -92 14 -31
60 -36 84 -8 16 19 58 130 58 154 0 21 -32 48 -57 48 -11 0 -27 -8 -35 -17z
m55 -40 c-5 -42 -45 -133 -59 -133 -24 0 -26 24 -6 76 10 27 22 57 25 67 9 26
43 17 40 -10z"/>
<path d="M3579 3359 c-15 -15 -19 -28 -14 -47 10 -40 23 -52 67 -58 43 -7 69
-37 49 -57 -9 -9 -17 -8 -32 1 -39 24 -54 -8 -15 -33 53 -35 103 22 72 83 -16
32 -34 42 -71 42 -30 0 -51 33 -31 49 11 9 17 8 28 -3 10 -9 19 -11 29 -5 11
8 10 13 -10 29 -30 25 -46 25 -72 -1z"/>
<path d="M1831 3315 c0 -33 -4 -83 -7 -112 l-7 -51 -51 36 -51 36 33 -35 c17
-19 32 -38 32 -42 0 -4 -19 -7 -42 -8 -24 0 -63 -4 -88 -8 -40 -6 -34 -8 58
-15 l103 -8 -34 -46 c-53 -74 -54 -80 -8 -32 24 25 45 40 47 35 2 -6 8 -51 12
-100 l8 -90 8 103 c5 56 11 102 15 102 3 0 31 -16 61 -36 l55 -37 -49 51 -48
50 78 7 c44 3 90 7 104 9 14 1 -21 6 -77 10 -57 5 -103 12 -103 15 0 4 14 27
32 52 l31 44 -41 -39 c-23 -22 -43 -38 -46 -35 -2 2 -8 49 -13 104 -9 87 -10
92 -12 40z"/>
<path d="M6314 3362 c-19 -12 -35 -52 -29 -71 3 -10 14 -26 25 -36 24 -21 25
-34 6 -60 -12 -16 -16 -17 -29 -6 -9 7 -13 19 -10 27 3 9 -2 14 -16 14 -27 0
-29 -40 -3 -63 32 -29 69 -21 91 20 16 32 14 57 -9 86 -24 30 -26 55 -5 64 19
7 26 1 29 -24 4 -23 30 -24 34 0 8 38 -50 72 -84 49z"/>
<path d="M8141 3315 c0 -33 -4 -84 -7 -112 l-7 -53 -51 37 -51 37 33 -35 c17
-19 32 -38 32 -42 0 -4 -19 -7 -42 -8 -24 0 -63 -4 -88 -8 -40 -6 -34 -8 58
-15 l103 -8 -36 -49 c-40 -56 -38 -63 6 -18 17 17 32 29 34 27 3 -2 8 -47 13
-99 l8 -94 8 103 c5 56 11 102 15 102 3 0 31 -16 61 -36 l55 -37 -49 51 -48
50 78 7 c44 3 90 7 104 9 14 1 -21 6 -77 10 -57 5 -103 12 -103 15 0 4 14 27
32 52 l31 44 -41 -39 c-23 -22 -43 -38 -46 -35 -2 2 -8 49 -13 104 -9 87 -10
92 -12 40z"/>
<path d="M3505 3329 c-4 -6 -4 -27 0 -47 l7 -37 -30 28 c-17 16 -37 27 -47 25
-12 -2 -4 -16 35 -60 28 -31 57 -73 65 -92 9 -20 22 -36 30 -36 20 0 19 13 -5
60 -11 22 -20 52 -20 67 0 45 -12 103 -21 103 -4 0 -11 -5 -14 -11z"/>
<path d="M6438 3267 c-20 -29 -51 -71 -68 -94 -27 -37 -29 -44 -15 -49 9 -4
21 0 29 11 19 27 52 15 48 -17 -3 -23 13 -47 24 -36 2 3 13 51 25 107 29 145
18 165 -43 78z m17 -59 c-9 -39 -11 -42 -24 -33 -8 4 -6 16 6 36 22 37 26 37
18 -3z"/>
<path d="M3368 3269 c-21 -11 -38 -23 -38 -28 0 -16 13 -20 32 -10 11 6 22 8
25 6 2 -3 9 -38 14 -79 5 -40 12 -83 14 -95 l5 -23 45 22 c25 12 45 25 45 29
0 15 -20 20 -41 9 -11 -7 -22 -10 -24 -8 -2 2 -8 43 -14 92 -6 50 -14 93 -18
97 -5 4 -25 -1 -45 -12z"/>
<path d="M6525 3181 c-25 -50 -45 -97 -45 -105 0 -18 60 -39 84 -30 19 7 86
133 86 162 0 22 -25 47 -57 56 -20 6 -27 -2 -68 -83z m82 38 c8 -8 4 -26 -14
-68 -29 -67 -48 -90 -63 -75 -7 7 0 33 21 82 33 75 38 79 56 61z"/>
<path d="M3252 3204 c-31 -21 -28 -46 15 -126 40 -73 64 -89 102 -68 21 11 30
63 13 74 -13 8 -27 -7 -27 -28 0 -40 -24 -25 -59 38 -20 35 -36 69 -36 75 0
14 37 15 42 1 2 -6 9 -6 18 0 12 7 12 12 -4 29 -23 25 -34 26 -64 5z"/>
<path d="M6684 3209 c-4 -7 3 -19 17 -30 l24 -18 -68 -61 c-37 -34 -67 -68
-67 -76 0 -7 18 -23 40 -34 38 -19 41 -19 47 -3 4 9 2 18 -3 20 -42 15 -39 23
29 89 37 37 67 70 67 73 0 4 -18 17 -39 29 -28 16 -42 19 -47 11z"/>
<path d="M6745 3067 c-27 -50 -50 -96 -50 -100 0 -4 17 -18 38 -30 33 -18 39
-19 47 -7 7 11 3 18 -15 28 -28 14 -31 30 -12 56 11 15 17 17 35 7 22 -12 42
-8 42 8 0 4 -11 13 -26 19 -25 12 -25 12 -8 42 17 28 19 29 41 14 22 -14 43
-12 43 5 0 6 -71 51 -81 51 -2 0 -26 -42 -54 -93z"/>
<path d="M3127 3132 c-25 -28 -21 -49 23 -123 41 -69 60 -82 98 -68 46 17 42
55 -17 147 -44 67 -72 79 -104 44z m80 -69 c40 -63 46 -86 22 -91 -19 -4 -93
113 -85 135 10 25 26 13 63 -44z"/>
<path d="M6850 3004 c-30 -52 -54 -98 -53 -102 5 -19 25 -10 40 17 31 53 45
49 38 -13 -5 -41 -4 -54 7 -59 11 -4 17 12 27 69 12 70 14 74 52 96 21 12 39
25 39 29 0 19 -29 13 -68 -13 l-43 -30 21 41 c19 38 20 61 2 61 -4 0 -32 -43
-62 -96z"/>
<path d="M2998 3055 l-27 -15 60 -93 c33 -50 65 -93 70 -95 10 -4 69 52 69 65
0 5 -19 40 -43 78 -48 77 -75 90 -129 60z m96 -70 c37 -56 44 -79 26 -90 -11
-7 -102 124 -94 137 12 19 33 4 68 -47z"/>
<path d="M4405 2781 l-69 -71 229 -233 c127 -128 237 -237 246 -244 13 -9 27
0 84 57 l67 67 -244 247 -243 247 -70 -70z"/>
<path d="M5188 2493 l-317 -317 57 -62 c31 -34 64 -64 71 -68 11 -5 110 89
333 311 l318 318 -67 67 c-37 38 -70 68 -73 68 -3 0 -148 -143 -322 -317z"/>
<path d="M4408 2414 c-38 -35 -68 -68 -68 -72 0 -4 108 -115 240 -247 l240
-240 67 67 67 67 -221 228 c-121 125 -229 236 -239 245 -18 16 -22 13 -86 -48z"/>
<path d="M5186 2124 l-318 -315 63 -68 c35 -38 67 -69 72 -70 4 0 151 142 328
316 l320 317 -68 68 c-37 37 -70 68 -73 68 -3 -1 -148 -143 -324 -316z"/>
</g>
</svg>
